<svg xmlns="http://www.w3.org/2000/svg" version="1.0" width="300.000000pt" height="300.000000pt" viewBox="0 0 300.000000 300.000000" preserveAspectRatio="xMidYMid meet">
<metadata fill="#ffffff">
Created by potrace 1.10, written by Peter Selinger 2001-2011
</metadata>
<g transform="translate(0.000000,300.000000) scale(0.100000,-0.100000)" fill="#ffffff" stroke="none">
<path d="M1533 2717 c-42 -61 -39 -140 7 -182 20 -18 20 -17 20 35 0 29 3 50 7 47 3 -4 8 -66 9 -138 l3 -132 -23 22 c-15 14 -22 30 -19 42 7 24 -38 84 -77 104 -16 8 -52 15 -79 15 l-50 0 15 -37 c17 -40 57 -88 88 -105 10 -5 39 -13 65 -17 39 -5 48 -11 62 -38 21 -43 13 -87 -43 -233 -42 -109 -43 -110 -49 -73 -4 21 -3 48 2 61 22 57 8 114 -39 165 -33 35 -48 34 -61 -4 -22 -65 -14 -106 29 -152 39 -42 40 -42 40 -15 0 15 -4 38 -10 52 -5 14 -6 26 -1 26 23 0 30 -61 16 -140 -15 -87 -20 -99 -76 -181 -97 -143 -149 -259 -149 -327 1 -36 1 -36 24 24 38 97 62 140 184 319 142 210 262 360 262 328 0 -5 -13 -22 -30 -38 -16 -16 -30 -35 -30 -43 0 -22 56 -8 98 24 33 26 76 100 66 116 -9 14 -109 9 -132 -8 -25 -18 -52 -64 -52 -91 0 -11 -18 -37 -40 -58 -22 -21 -40 -36 -40 -33 0 3 11 31 25 63 23 52 69 204 81 265 3 17 -2 12 -16 -15 l-19 -40 -1 60 c0 33 -4 77 -9 97 -5 21 -5 35 0 33 14 -9 39 51 39 94 0 22 -5 52 -11 68 -10 27 -47 73 -58 73 -3 0 -16 -15 -28 -33z m45 -71 c-2 -10 -7 -13 -17 -7 -8 6 -11 16 -7 27 8 21 30 4 24 -20z m-69 -224 c13 -11 20 -22 15 -25 -9 -5 -74 46 -74 58 0 7 28 -9 59 -33z" fill="#ffffff"/>
<path d="M2061 2603 c-52 -49 -71 -110 -49 -163 l15 -35 18 58 c10 31 23 57 28 57 5 0 6 -7 3 -16 -3 -9 -9 -28 -12 -42 -4 -15 -11 -32 -15 -38 -5 -6 -18 -35 -28 -65 -25 -72 -43 -109 -52 -109 -4 0 -5 12 -2 28 17 99 16 110 -15 142 -17 16 -37 30 -46 30 -43 0 -44 -108 -1 -158 30 -34 40 -24 27 28 -5 22 -6 40 -2 40 11 0 20 -38 20 -86 0 -47 -11 -62 -83 -119 -76 -61 -46 -53 59 15 96 62 188 100 244 100 16 0 31 4 35 9 6 11 63 -3 79 -19 10 -10 -33 -6 -71 5 -7 2 -15 0 -18 -5 -10 -16 44 -59 82 -66 35 -7 108 9 118 26 3 5 -12 27 -33 49 -36 38 -42 41 -95 41 -31 0 -58 -4 -61 -9 -3 -5 -22 -11 -41 -13 -19 -2 -32 -1 -27 2 4 3 33 23 65 44 32 22 66 49 75 60 22 27 92 79 98 73 3 -2 -19 -26 -48 -52 l-53 -47 46 5 c77 7 124 55 144 145 6 30 5 32 -22 32 -33 0 -122 -40 -142 -63 -7 -9 -19 -34 -26 -54 -13 -40 -42 -60 -217 -156 l-67 -36 25 46 c13 25 24 56 24 68 0 12 20 42 44 68 34 35 46 56 51 90 7 44 -9 127 -24 127 -5 0 -27 -17 -50 -37z" fill="#ffffff"/>
<path d="M1692 2563 c-47 -23 -72 -59 -72 -104 0 -54 14 -56 44 -6 30 50 35 33 6 -23 -25 -49 -12 -59 31 -23 38 33 59 79 59 133 0 46 -13 50 -68 23z" fill="#ffffff"/>
<path d="M859 2489 c-24 -24 -58 -96 -59 -122 0 -22 30 -90 38 -83 5 6 23 91 25 124 3 29 21 33 25 5 2 -13 -1 -23 -7 -23 -7 0 -11 -23 -11 -55 0 -41 3 -53 13 -49 43 16 61 122 33 189 -17 40 -28 43 -57 14z" fill="#ffffff"/>
<path d="M630 2418 c0 -57 2 -63 39 -99 27 -28 47 -39 68 -39 22 0 33 -7 41 -25 7 -14 12 -31 12 -38 0 -7 14 -41 30 -75 17 -35 30 -66 30 -69 0 -3 -16 9 -35 25 -19 17 -62 46 -95 64 -33 18 -60 38 -60 44 0 13 -58 68 -89 84 -15 8 -42 10 -76 5 -46 -5 -52 -9 -48 -26 3 -11 25 -41 48 -67 40 -44 46 -47 94 -47 33 0 55 5 60 14 7 10 27 0 90 -48 101 -77 176 -167 232 -277 24 -46 45 -84 47 -84 12 0 -13 93 -43 160 -18 41 -35 94 -38 118 -4 41 -3 44 39 73 58 40 81 87 75 157 -3 34 -89 -8 -121 -60 -15 -23 -20 -48 -19 -83 3 -98 0 -105 -23 -55 -14 30 -22 74 -26 134 -5 93 -21 101 -22 11 l-1 -50 -27 55 c-16 30 -45 72 -65 93 -20 21 -37 44 -37 50 1 7 16 -5 34 -25 18 -21 36 -38 39 -38 8 0 -1 56 -15 93 -13 33 -50 61 -100 75 l-38 10 0 -60z m80 -23 c0 -19 -20 -29 -32 -17 -15 15 -2 43 17 36 8 -3 15 -12 15 -19z m-91 -186 c49 -30 32 -34 -20 -4 -24 13 -37 25 -29 25 8 0 30 -9 49 -21z m332 -75 c-17 -27 -31 -43 -31 -36 0 16 18 51 38 75 28 31 24 10 -7 -39z" fill="#ffffff"/>
<path d="M2013 2068 c-46 -51 -57 -117 -28 -171 13 -26 13 -31 -6 -57 -12 -15 -34 -37 -50 -49 -45 -34 -129 -81 -129 -73 1 13 27 42 38 42 13 0 52 80 52 109 0 22 -33 96 -48 105 -4 2 -18 -11 -31 -30 -32 -47 -40 -124 -16 -161 18 -27 18 -27 -18 -58 -19 -17 -79 -49 -132 -72 -83 -35 -94 -38 -81 -19 43 58 92 186 72 186 -3 0 -19 -29 -35 -64 -18 -37 -63 -99 -108 -150 -120 -134 -150 -175 -193 -259 -49 -98 -130 -342 -131 -399 l-1 -43 -10 35 c-5 19 -26 80 -46 135 -47 126 -47 186 -4 335 31 106 37 147 32 230 -2 39 -4 34 -15 -40 -7 -47 -25 -121 -40 -165 -15 -44 -30 -105 -34 -135 -8 -57 -9 -56 -34 24 -14 45 -14 51 0 61 20 15 20 92 -1 132 -9 18 -33 44 -53 58 -45 30 -52 23 -60 -59 -6 -59 8 -95 52 -136 l28 -25 -7 49 c-3 27 -13 60 -21 72 -19 30 -19 44 1 44 9 0 14 -7 13 -17 -1 -10 3 -31 9 -46 7 -16 12 -43 12 -62 0 -63 40 -227 74 -305 49 -112 59 -172 41 -271 -15 -89 -25 -111 -25 -58 0 101 -64 227 -148 291 -92 72 -128 137 -156 291 -9 47 -23 103 -30 125 -8 22 -17 62 -21 88 -5 44 -4 50 17 59 33 14 70 92 63 130 -10 50 -27 85 -40 85 -19 0 -74 -66 -81 -97 -4 -15 -2 -45 5 -67 7 -23 14 -72 16 -111 l5 -70 -21 35 c-11 19 -37 64 -59 99 -34 58 -37 67 -25 85 24 36 29 99 11 134 -14 27 -73 82 -88 82 -12 0 -31 -64 -31 -105 0 -32 8 -57 27 -85 14 -22 30 -40 34 -40 5 0 7 26 6 58 l-4 57 15 -44 c8 -24 12 -54 9 -66 -3 -13 2 -37 11 -55 18 -36 18 -36 -42 0 -24 14 -43 31 -43 39 0 26 -52 83 -94 102 -50 23 -124 25 -132 5 -11 -28 46 -105 98 -132 29 -15 108 -19 108 -6 0 4 -23 21 -50 37 -28 16 -46 31 -40 33 13 5 100 -46 100 -57 0 -5 22 -23 49 -41 43 -27 100 -86 125 -128 4 -6 -10 -2 -31 10 -25 15 -56 23 -88 24 -27 1 -70 2 -95 4 -38 2 -41 3 -20 10 14 4 45 5 69 2 50 -6 50 8 -1 34 -49 25 -111 21 -158 -10 -23 -15 -40 -33 -37 -39 6 -20 80 -57 114 -57 18 0 56 9 85 21 44 17 59 19 89 10 80 -24 108 -63 143 -205 25 -97 54 -163 80 -185 29 -24 17 -28 -41 -13 -32 8 -71 25 -87 39 -30 25 -48 24 -27 -1 9 -11 -3 -10 -52 6 -57 19 -66 26 -87 64 -38 74 -136 103 -195 60 -14 -10 -13 -16 14 -53 17 -23 44 -49 60 -58 31 -15 121 -21 121 -7 0 4 -18 18 -40 32 -52 32 -52 46 0 20 22 -11 40 -25 40 -30 0 -13 72 -49 140 -71 46 -14 50 -17 25 -18 -16 -1 -37 -6 -45 -11 -18 -11 -14 -12 68 -10 164 4 272 -80 302 -237 10 -51 10 -75 -4 -145 -21 -106 -55 -176 -115 -237 -53 -54 -123 -83 -236 -96 -101 -11 -76 -18 50 -12 141 5 195 22 258 77 54 48 97 133 131 260 13 52 30 115 37 140 15 60 29 94 34 88 9 -8 -33 -183 -42 -181 -6 1 -18 -37 -27 -85 -28 -144 -74 -229 -154 -282 l-47 -32 40 6 c63 9 147 57 174 98 l24 37 21 -31 c44 -65 148 -98 312 -98 117 0 132 14 27 23 -151 14 -237 62 -287 160 -25 49 -29 68 -29 140 0 111 25 211 83 332 51 106 112 185 163 212 50 25 207 21 207 -6 0 -5 -20 -3 -45 5 -25 7 -45 10 -45 6 0 -16 33 -53 60 -67 28 -14 140 -21 140 -9 0 4 -10 24 -22 45 -29 52 -117 96 -142 72 -7 -8 -126 -12 -126 -5 0 2 25 15 57 29 69 32 168 41 255 23 35 -7 74 -14 88 -15 31 -2 70 -22 70 -36 0 -5 -13 -3 -30 6 -29 15 -60 20 -60 9 0 -3 8 -19 17 -35 23 -38 69 -59 133 -59 49 0 51 1 44 23 -26 85 -68 119 -144 117 -85 -2 -98 -1 -80 9 26 15 93 24 155 22 72 -2 109 17 155 81 37 51 30 58 -60 59 -65 1 -97 -13 -137 -60 -21 -24 -30 -51 -18 -51 3 0 28 12 56 26 28 14 53 23 56 20 9 -9 -80 -58 -111 -61 -39 -3 -173 -14 -249 -20 l-57 -5 33 34 c41 40 86 71 93 63 3 -3 -13 -18 -37 -34 l-43 -28 31 -3 c64 -6 124 46 127 110 1 31 -1 33 -29 29 -66 -7 -131 -58 -149 -116 -3 -13 -32 -34 -71 -53 -36 -18 -67 -32 -69 -32 -1 0 10 25 26 56 27 54 39 134 19 134 -9 0 -51 -90 -51 -110 0 -26 -44 -91 -115 -169 -42 -47 -88 -104 -102 -128 -14 -24 -27 -42 -29 -40 -10 9 92 291 126 348 53 89 152 181 226 209 191 71 354 66 473 -14 60 -40 67 -32 14 15 l-37 32 94 -6 c52 -3 109 -11 127 -17 42 -15 136 -130 119 -147 -3 -3 -13 11 -23 31 -9 20 -22 35 -27 33 -16 -5 -23 -57 -14 -91 8 -32 64 -96 83 -96 14 0 45 63 45 91 0 33 -28 78 -60 94 -16 8 -34 24 -40 35 -13 25 -10 25 39 -1 22 -11 45 -18 51 -14 11 7 96 -42 88 -50 -2 -3 -23 5 -46 16 -65 33 -71 18 -16 -39 38 -39 58 -52 82 -54 18 -1 46 -2 62 -3 35 -2 36 5 11 60 -22 48 -73 95 -107 96 -13 1 -30 2 -36 3 -7 1 -23 -1 -36 -6 -17 -6 -33 -1 -60 16 -33 22 -53 31 -137 61 -29 11 56 33 164 44 l84 8 26 -30 c38 -42 108 -48 170 -15 24 13 44 27 45 33 0 5 -19 25 -43 42 -49 38 -91 42 -149 16 l-37 -16 48 -10 c26 -6 47 -14 47 -18 0 -11 -83 -6 -92 5 -3 5 -34 9 -68 9 -56 0 -60 2 -44 14 33 24 84 74 84 83 0 4 9 6 20 3 10 -3 40 5 66 17 38 19 51 32 70 74 13 28 24 59 24 70 0 16 -5 17 -47 11 -85 -12 -135 -55 -149 -124 -9 -42 4 -39 47 12 20 23 40 39 44 35 9 -9 -93 -109 -153 -150 -91 -63 -248 -95 -402 -83 -52 5 -117 7 -145 6 -59 -2 -53 5 35 45 59 26 75 29 165 27 55 0 123 -4 150 -7 40 -6 56 -3 83 13 28 18 72 74 72 92 0 10 -74 17 -105 12 -15 -3 -45 -23 -67 -44 -40 -38 -41 -38 -104 -32 l-63 6 62 29 c34 16 77 44 95 61 24 24 40 31 62 29 69 -8 125 50 145 147 l7 34 -41 -6 c-22 -3 -56 -15 -76 -27 -37 -23 -79 -90 -73 -118 2 -9 -6 -25 -18 -35 -26 -20 -197 -100 -192 -89 25 50 34 61 51 64 25 4 57 63 57 106 0 33 -34 112 -48 112 -5 0 -18 -10 -29 -22z m268 -96 c-13 -24 -66 -64 -74 -56 -3 3 11 20 31 37 20 18 39 36 41 40 1 5 5 6 8 3 2 -2 0 -13 -6 -24z m-245 -44 c-7 -41 -13 -56 -19 -47 -8 9 6 89 15 89 7 0 8 -16 4 -42z m-206 -138 c-17 -32 -21 -19 -8 26 9 31 13 34 16 17 2 -12 -2 -32 -8 -43z m405 -10 c-7 -12 -85 -33 -92 -26 -3 3 0 8 8 10 8 2 28 9 44 14 40 14 47 14 40 2z m-1855 -30 c12 -7 12 -12 3 -21 -9 -9 -16 -9 -27 1 -26 21 -5 39 24 20z m364 -57 c-11 -45 -24 -76 -30 -71 -8 8 17 98 27 98 5 0 6 -12 3 -27z m1903 -9 c4 -13 -24 -27 -37 -19 -5 3 -7 12 -3 21 6 17 34 15 40 -2z m-87 -232 c-6 -2 -18 -1 -26 2 -14 5 -14 9 -3 22 12 14 14 14 26 -2 9 -13 10 -20 3 -22z m-164 -23 c10 -17 -13 -36 -27 -22 -12 12 -4 33 11 33 5 0 12 -5 16 -11z m-1956 -197 c0 -19 -23 -32 -37 -21 -20 17 -15 29 12 29 14 0 25 -4 25 -8z m645 -550 c-3 -14 -13 -35 -21 -46 -15 -20 -15 -18 -9 24 9 53 13 62 27 54 5 -3 7 -18 3 -32z m80 -147 c12 -36 20 -65 18 -65 -3 0 -13 5 -24 11 -15 8 -24 7 -35 -2 -23 -19 -24 -9 -6 63 8 37 18 66 20 63 3 -2 14 -34 27 -70z" fill="#ffffff"/>
<path d="M1145 1868 c-50 -39 -73 -140 -41 -183 12 -17 15 -14 30 38 9 31 19 57 21 57 3 0 2 -28 -2 -62 l-6 -63 21 18 c50 45 65 136 32 197 -14 25 -21 25 -55 -2z" fill="#ffffff"/>
<path d="M544 1344 c-13 -72 33 -160 94 -179 28 -8 28 -7 -4 49 -15 26 -24 50 -21 53 3 3 17 -18 32 -46 36 -72 57 -52 39 39 -8 38 -60 93 -103 108 -30 10 -31 10 -37 -24z" fill="#ffffff"/>
<path d="M509 1067 c-34 -22 -73 -83 -63 -99 8 -13 103 -9 132 6 43 23 78 64 64 78 -8 8 -15 8 -24 1 -18 -14 -58 -23 -58 -13 0 5 16 14 35 20 53 18 52 30 -3 30 -34 0 -59 -7 -83 -23z" fill="#ffffff"/>
</g>
</svg>